name D:\school\WTK\thesis\model\3dpredictsim\Results\Final\Fal_s1_bCst_ig1_v18.mot
datacolumns 126
datarows 4
range 1.24792986 1.27288845
endheader
time	pelvis_tilt	pelvis_list	pelvis_rotation	pelvis_tx	pelvis_ty	pelvis_tz	hip_flexion_l	hip_adduction_l	hip_rotation_l	hip_flexion_r	hip_adduction_r	hip_rotation_r	knee_angle_l	knee_angle_r	ankle_angle_l	ankle_angle_r	subtalar_angle_l	subtalar_angle_r	mtp_angle_l	mtp_angle_r	lumbar_extension	lumbar_bending	lumbar_rotation	arm_flex_l	arm_add_l	arm_rot_l	arm_flex_r	arm_add_r	arm_rot_r	elbow_flex_l	elbow_flex_r	pro_sup_l	pro_sup_r	glut_med1_l/activation	glut_med2_l/activation	glut_med3_l/activation	glut_min1_l/activation	glut_min2_l/activation	glut_min3_l/activation	semimem_l/activation	semiten_l/activation	bifemlh_l/activation	bifemsh_l/activation	sar_l/activation	add_long_l/activation	add_brev_l/activation	add_mag1_l/activation	add_mag2_l/activation	add_mag3_l/activation	tfl_l/activation	pect_l/activation	grac_l/activation	glut_max1_l/activation	glut_max2_l/activation	glut_max3_l/activation	iliacus_l/activation	psoas_l/activation	quad_fem_l/activation	gem_l/activation	peri_l/activation	rect_fem_l/activation	vas_med_l/activation	vas_int_l/activation	vas_lat_l/activation	med_gas_l/activation	lat_gas_l/activation	soleus_l/activation	tib_post_l/activation	flex_dig_l/activation	flex_hal_l/activation	tib_ant_l/activation	per_brev_l/activation	per_long_l/activation	per_tert_l/activation	ext_dig_l/activation	ext_hal_l/activation	ercspn_l/activation	intobl_l/activation	extobl_l/activation	glut_med1_r/activation	glut_med2_r/activation	glut_med3_r/activation	glut_min1_r/activation	glut_min2_r/activation	glut_min3_r/activation	semimem_r/activation	semiten_r/activation	bifemlh_r/activation	bifemsh_r/activation	sar_r/activation	add_long_r/activation	add_brev_r/activation	add_mag1_r/activation	add_mag2_r/activation	add_mag3_r/activation	tfl_r/activation	pect_r/activation	grac_r/activation	glut_max1_r/activation	glut_max2_r/activation	glut_max3_r/activation	iliacus_r/activation	psoas_r/activation	quad_fem_r/activation	gem_r/activation	peri_r/activation	rect_fem_r/activation	vas_med_r/activation	vas_int_r/activation	vas_lat_r/activation	med_gas_r/activation	lat_gas_r/activation	soleus_r/activation	tib_post_r/activation	flex_dig_r/activation	flex_hal_r/activation	tib_ant_r/activation	per_brev_r/activation	per_long_r/activation	per_tert_r/activation	ext_dig_r/activation	ext_hal_r/activation	ercspn_r/activation	intobl_r/activation	extobl_r/activation	
          1.24792986	         -9.84905549	          2.12136951	         -1.55459325	          2.24627374	          0.90739553	          0.00005742	         40.57001420	          3.24828798	         -2.85459128	         -6.38780789	         -0.49630037	          6.02733868	        -22.07767931	        -19.21792700	         13.94520884	         -2.47342284	         -1.08286840	          7.35934640	         -0.16883188	         25.24171003	          2.71981038	         -1.90902445	          2.16119216	         -7.84155342	        -13.94476115	         -1.70478674	          0.83088554	        -13.61035305	         15.13050225	         46.75596649	         40.25175699	         86.51662706	         86.51662706	          0.09171730	          0.07380962	          0.09074466	          0.06482640	          0.06482093	          0.05050026	          0.33322913	          0.05706665	          0.41109381	          0.05693265	          0.07300467	          0.06012692	          0.18157021	          0.29878605	          0.30440894	          0.29894236	          0.05388683	          0.05010678	          0.05799744	          0.22999887	          0.23182400	          0.29421249	          0.06474834	          0.06209519	          0.20291924	          0.05149669	          0.08966977	          0.05000059	          0.08151047	          0.08640666	          0.06846874	          0.06482701	          0.06482678	          0.06482713	          0.05693335	          0.05677161	          0.05693496	          0.52079213	          0.19137000	          0.18047432	          0.22334016	          0.58327737	          0.33407258	          0.12287039	          0.05742828	          0.08408683	          0.12030432	          0.05000401	          0.05000485	          0.23582655	          0.12393219	          0.06907285	          0.05000360	          0.05000068	          0.05000056	          0.05000072	          0.06497964	          0.56806546	          0.05000823	          0.05000911	          0.05001507	          0.05000384	          0.49151404	          0.09326740	          0.05000197	          0.05001147	          0.05000621	          0.05000414	          0.24112306	          0.80517238	          0.23663558	          0.05687792	          0.05693682	          0.39915394	          0.13351485	          0.12853642	          0.12408738	          0.28861874	          0.42274746	          0.07998681	          0.26884529	          0.32855092	          0.40199913	          0.05000010	          0.06707519	          0.15567823	          0.05000043	          0.13706755	          0.05000055	          0.05640315	          0.05000015	          0.05000016	
          1.25624939	         -9.83984389	          2.18274573	         -1.75632954	          2.26328921	          0.90600420	         -0.00012684	         40.21508183	          3.41626519	         -2.74398928	         -6.74400200	         -0.73941606	          5.95411593	        -21.58830128	        -20.09852426	         13.52091485	         -4.01674773	         -1.34171696	          8.15150925	         -0.14211592	         25.42880007	          2.87972353	         -2.07414194	          2.18062153	         -8.35693196	        -13.92544886	         -2.32927511	          0.49181888	        -13.64094650	         15.18951204	         46.90740537	         40.79477263	         86.51662706	         86.51662706	          0.10112599	          0.06482437	          0.07969935	          0.05693496	          0.05693566	          0.05693706	          0.33774205	          0.05011770	          0.40691949	          0.05000018	          0.06411481	          0.05693438	          0.28679299	          0.34573592	          0.34220713	          0.31103957	          0.05693456	          0.05673333	          0.05093578	          0.26564129	          0.25503991	          0.30068746	          0.05686461	          0.05453404	          0.21016232	          0.05000130	          0.11224097	          0.05001405	          0.16230891	          0.15741091	          0.13274423	          0.05693288	          0.05693279	          0.05693293	          0.05000050	          0.05000111	          0.05000264	          0.63921618	          0.18692094	          0.18418052	          0.50041994	          0.68059556	          0.45043516	          0.11162881	          0.05693302	          0.07384729	          0.10565452	          0.05001346	          0.05693266	          0.20710922	          0.10884086	          0.06066415	          0.05000281	          0.05000095	          0.05000082	          0.05000103	          0.05706878	          0.59902374	          0.19285292	          0.08604384	          0.05003295	          0.05000295	          0.51287916	          0.08192247	          0.05052595	          0.05533303	          0.05029430	          0.05000580	          0.21176069	          0.83463011	          0.23655784	          0.05000753	          0.05000432	          0.35054746	          0.11725632	          0.11288414	          0.10897685	          0.25347254	          0.37126792	          0.07024652	          0.23610721	          0.28854351	          0.35304695	          0.08069753	          0.06482953	          0.13672080	          0.05933006	          0.25909943	          0.09710530	          0.06974991	          0.05000005	          0.05000019	
          1.26456892	         -9.82579968	          2.23672238	         -1.94623102	          2.28037116	          0.90431967	         -0.00030579	         39.80051326	          3.60489367	         -2.59208134	         -6.90237627	         -0.94692731	          5.90624436	        -21.74485976	        -21.35374763	         12.92635500	         -5.37088220	         -1.60549492	          8.93807377	         -0.13161792	         25.05173140	          3.04561082	         -2.23671250	          2.18830253	         -8.82993020	        -13.91731593	         -2.87684521	          0.13563822	        -13.67373032	         15.21271453	         46.95217479	         41.31803435	         86.51662706	         86.51662706	          0.08881154	          0.05693072	          0.13643006	          0.05000202	          0.05000272	          0.05000410	          0.29661634	          0.05001327	          0.35736876	          0.05693159	          0.05630776	          0.05000166	          0.25186945	          0.54629773	          0.37717063	          0.29476130	          0.05000201	          0.05000471	          0.05694756	          0.25245754	          0.26535969	          0.30669012	          0.05000020	          0.05000086	          0.49194660	          0.20841687	          0.17300216	          0.06482798	          0.25108201	          0.23881954	          0.20288007	          0.05000001	          0.05000002	          0.05000000	          0.05000018	          0.05000089	          0.05000048	          0.63539015	          0.16415904	          0.18779722	          0.55881156	          0.69088396	          0.39558423	          0.09803545	          0.05000015	          0.06485467	          0.09278865	          0.05000094	          0.05000059	          0.18188894	          0.09558727	          0.05328439	          0.05144664	          0.05000050	          0.05000038	          0.05000089	          0.05012006	          0.52608063	          0.36753254	          0.37446306	          0.15966868	          0.09462460	          0.53470628	          0.07194821	          0.05000147	          0.05000400	          0.05000219	          0.12451388	          0.18597384	          0.83413760	          0.34251119	          0.12507230	          0.06483426	          0.30785997	          0.10297764	          0.09913788	          0.09570639	          0.22260623	          0.32605728	          0.06169237	          0.23844721	          0.27454837	          0.31005559	          0.11851973	          0.05693512	          0.12007183	          0.05693647	          0.27280904	          0.08528121	          0.08785320	          0.05673671	          0.05000012	
          1.27288845	         -9.80788997	          2.28784633	         -2.12218835	          2.29746851	          0.90238291	         -0.00045254	         39.28355599	          3.77657912	         -2.36017437	         -6.86267483	         -1.11822909	          5.85770802	        -22.48709717	        -22.98006194	         12.18206510	         -6.45204270	         -1.90971339	          9.68448530	         -0.19353013	         23.88067597	          3.21319354	         -2.40232413	          2.18387800	         -9.24900237	        -13.92667683	         -3.34010480	         -0.22679616	        -13.70236363	         15.20691057	         46.88110353	         41.80878094	         86.51662706	         86.51662706	          0.25525756	          0.05000017	          0.44451881	          0.05000115	          0.05000057	          0.30287153	          0.26320860	          0.05000014	          0.31385089	          0.05000009	          0.05000111	          0.07382747	          0.37081378	          0.47977357	          0.37333974	          0.32378642	          0.05000081	          0.07382191	          0.05001397	          0.37993141	          0.33681093	          0.34080607	          0.05693565	          0.05320603	          0.43204178	          0.18304127	          0.45960781	          0.05693367	          0.22068059	          0.21021820	          0.18597854	          0.06482892	          0.06482867	          0.06482729	          0.05693313	          0.05693285	          0.05693304	          0.55801627	          0.25541301	          0.16492862	          0.49076304	          0.60675255	          0.34741249	          0.09269179	          0.05000005	          0.05695713	          0.08148975	          0.05693515	          0.05693521	          0.15973978	          0.08394764	          0.05692819	          0.05000188	          0.05000800	          0.05693683	          0.05000014	          0.05000092	          0.46201804	          0.48021740	          0.32886559	          0.14054552	          0.12408348	          0.55130138	          0.06319345	          0.05664999	          0.05862177	          0.09589699	          0.11563910	          0.16332714	          0.75462851	          0.30080263	          0.10984211	          0.05693928	          0.27037069	          0.09043769	          0.08706551	          0.08405188	          0.19549864	          0.28635214	          0.06271747	          0.20941186	          0.24111863	          0.27230005	          0.11947886	          0.05000201	          0.10545029	          0.05000320	          0.36292937	          0.07489663	          0.11683707	          0.05693303	          0.05000071	
